<svg width="220" height="272" viewBox="0 0 220 272" fill="none" xmlns="http://www.w3.org/2000/svg">
<circle cx="110" cy="120" r="99" stroke="white" stroke-width="2"/>
<circle cx="120" cy="120" r="99" stroke="white" stroke-width="2"/>
<circle cx="100" cy="110" r="99" stroke="white" stroke-width="2"/>
<circle cx="120" cy="100" r="99" stroke="white" stroke-width="2"/>
<path d="M32.24 270V244.08H41.616V245.968H34.704V255.696H40.336V257.488H34.704V268.176H41.68V270H32.24ZM83.038 270.32C81.2887 270.32 79.934 269.957 78.974 269.232C78.0353 268.507 77.3847 267.536 77.022 266.32C76.6593 265.083 76.478 263.717 76.478 262.224V251.92C76.478 250.32 76.6593 248.912 77.022 247.696C77.406 246.48 78.078 245.531 79.038 244.848C79.998 244.165 81.3313 243.824 83.038 243.824C84.5953 243.824 85.8113 244.123 86.686 244.72C87.582 245.317 88.222 246.171 88.606 247.28C88.99 248.368 89.182 249.669 89.182 251.184V252.752H86.878V251.248C86.878 250.117 86.782 249.147 86.59 248.336C86.4193 247.525 86.0567 246.896 85.502 246.448C84.9473 246 84.1367 245.776 83.07 245.776C81.8967 245.776 81.0113 246.021 80.414 246.512C79.838 246.981 79.4433 247.653 79.23 248.528C79.038 249.403 78.942 250.416 78.942 251.568V262.608C78.942 263.888 79.0593 264.955 79.294 265.808C79.55 266.661 79.9767 267.301 80.574 267.728C81.1713 268.155 82.0033 268.368 83.07 268.368C84.158 268.368 84.9687 268.133 85.502 267.664C86.0567 267.195 86.4193 266.544 86.59 265.712C86.782 264.859 86.878 263.867 86.878 262.736V261.04H89.182V262.576C89.182 264.091 89.0007 265.435 88.638 266.608C88.2967 267.76 87.678 268.667 86.782 269.328C85.9073 269.989 84.6593 270.32 83.038 270.32ZM124.959 270V244.08H127.423V255.568H135.583V244.08H138.015V270H135.583V257.392H127.423V270H124.959ZM180.697 270.32C178.969 270.32 177.615 269.989 176.633 269.328C175.673 268.645 174.991 267.707 174.585 266.512C174.201 265.296 174.009 263.909 174.009 262.352V251.6C174.009 250.021 174.212 248.656 174.617 247.504C175.044 246.331 175.737 245.424 176.697 244.784C177.679 244.144 179.012 243.824 180.697 243.824C182.361 243.824 183.673 244.144 184.633 244.784C185.615 245.424 186.308 246.331 186.713 247.504C187.119 248.656 187.321 250.021 187.321 251.6V262.384C187.321 263.941 187.119 265.317 186.713 266.512C186.329 267.685 185.657 268.613 184.697 269.296C183.737 269.979 182.404 270.32 180.697 270.32ZM180.697 268.368C181.828 268.368 182.692 268.144 183.289 267.696C183.887 267.227 184.292 266.587 184.505 265.776C184.74 264.944 184.857 263.984 184.857 262.896V251.152C184.857 250.064 184.74 249.115 184.505 248.304C184.292 247.493 183.887 246.875 183.289 246.448C182.692 246 181.828 245.776 180.697 245.776C179.545 245.776 178.66 246 178.041 246.448C177.444 246.875 177.028 247.493 176.793 248.304C176.58 249.115 176.473 250.064 176.473 251.152V262.896C176.473 263.984 176.58 264.944 176.793 265.776C177.028 266.587 177.444 267.227 178.041 267.696C178.66 268.144 179.545 268.368 180.697 268.368Z" fill="white"/>
</svg>
